<?xml version="1.0" encoding="utf-8"?>
<!-- Generator: Adobe Illustrator 16.0.3, SVG Export Plug-In . SVG Version: 6.00 Build 0)  -->
<!DOCTYPE svg PUBLIC "-//W3C//DTD SVG 1.1//EN" "http://www.w3.org/Graphics/SVG/1.1/DTD/svg11.dtd">
<svg version="1.1" id="Шар_1" xmlns="http://www.w3.org/2000/svg" xmlns:xlink="http://www.w3.org/1999/xlink" x="0px" y="0px"
	 width="31.073px" height="29.385px" viewBox="0 0 31.073 29.385" enable-background="new 0 0 31.073 29.385" xml:space="preserve">
<path fill="#28B9BC" d="M10.613,28.183c-0.295,0-0.534,0.269-0.534,0.601l0,0c0,0.332,0.239,0.602,0.534,0.602h19.925
	c0.295,0,0.534-0.27,0.534-0.602l0,0c0-0.332-0.239-0.601-0.534-0.601H10.613z"/>
<path fill="#28B9BC" d="M16.747,12.053H1.055C0.473,12.053,0,12.538,0,13.135v3.479c0,0.597,0.473,1.082,1.055,1.082h15.691
	c0.583,0,1.056-0.485,1.056-1.082v-3.479C17.802,12.538,17.33,12.053,16.747,12.053z"/>
<path fill="#28B9BC" d="M7.485,18.206c0,0.367-0.303,0.665-0.676,0.665H2.555c-0.373,0-0.676-0.298-0.676-0.665v-0.664
	c0-0.367,0.303-0.665,0.676-0.665h4.254c0.373,0,0.676,0.298,0.676,0.665V18.206z"/>
<path fill="#28B9BC" d="M27.714,26.674H16.622c-0.735,0-1.332,0.596-1.332,1.332c0,0.735,0.597,1.331,1.332,1.331h11.093
	c0.735,0,1.332-0.596,1.332-1.331C29.046,27.27,28.45,26.674,27.714,26.674z"/>
<path fill="#28B9BC" d="M16.771,26.692V10.704c0-0.598,0.484-1.082,1.081-1.082h8.632c0.597,0,1.082,0.484,1.082,1.082v15.988
	H16.771z"/>
<path fill="#28B9BC" d="M26.288,0.534l-7.662-0.53c-0.653-0.045-1.23,0.383-1.396,0.992l-9.541-0.66
	C6.943,0.284,6.297,0.846,6.246,1.591L6.222,1.934C6.17,2.68,6.733,3.326,7.478,3.377l9.513,0.658l-0.191,2.776
	c-0.052,0.744,0.511,1.391,1.256,1.442l7.662,0.53c0.745,0.051,1.391-0.512,1.442-1.257l0.384-5.552
	C27.595,1.231,27.033,0.585,26.288,0.534z"/>
<rect x="17.802" y="7.281" fill="#28B9BC" width="8.32" height="3.417"/>
</svg>
