<?xml version="1.0" encoding="utf-8"?>
<!-- Generator: Adobe Illustrator 16.0.3, SVG Export Plug-In . SVG Version: 6.00 Build 0)  -->
<!DOCTYPE svg PUBLIC "-//W3C//DTD SVG 1.1//EN" "http://www.w3.org/Graphics/SVG/1.1/DTD/svg11.dtd">
<svg version="1.1" id="Шар_1" xmlns="http://www.w3.org/2000/svg" xmlns:xlink="http://www.w3.org/1999/xlink" x="0px" y="0px"
	 width="31.073px" height="29.385px" viewBox="0 0 31.073 29.385" enable-background="new 0 0 31.073 29.385" xml:space="preserve">
<path fill="#28B9BC" d="M22.967,10.014c-0.853-1.755-1.324-2.183-2.221-2.181c-0.336,0-0.73,0.06-1.225,0.13
	c0.289-0.128,0.457-0.273,0.457-0.429V4.999V4.998c0-1.035-0.978-1.914-2.343-2.264c0.293-0.258,0.571-0.524,0.781-0.772h2.776
	c0.504,0,0.913-0.408,0.913-0.913c0-0.504-0.409-0.912-0.913-0.912H10.241c-0.181,0-0.356,0.053-0.505,0.153L6.085,2.724
	C5.665,3.003,5.552,3.57,5.833,3.989c0.174,0.264,0.466,0.406,0.76,0.406c0.173,0,0.349-0.048,0.505-0.153l3.419-2.28h3.718v0.001
	l0,0c0.208,0.247,0.489,0.514,0.781,0.771c-1.366,0.352-2.341,1.23-2.341,2.265v2.536c0,0.146,0.147,0.284,0.407,0.406
	c-0.466-0.068-0.842-0.122-1.164-0.122c-0.904,0-1.376,0.431-2.231,2.192C8.144,13.186,7.2,18.384,7.2,21.748
	c0,6.983,4.084,7.589,9.126,7.589c5.041,0,9.128-0.605,9.128-7.589C25.455,18.385,24.508,13.19,22.967,10.014z"/>
</svg>
