<?xml version="1.0" encoding="utf-8"?>
<!-- Generator: Adobe Illustrator 16.0.3, SVG Export Plug-In . SVG Version: 6.00 Build 0)  -->
<!DOCTYPE svg PUBLIC "-//W3C//DTD SVG 1.1//EN" "http://www.w3.org/Graphics/SVG/1.1/DTD/svg11.dtd">
<svg version="1.1" id="Шар_1" xmlns="http://www.w3.org/2000/svg" xmlns:xlink="http://www.w3.org/1999/xlink" x="0px" y="0px"
	 width="34.249px" height="38.286px" viewBox="0 0 34.249 38.286" enable-background="new 0 0 34.249 38.286" xml:space="preserve">
<path fill="#28B9BC" d="M33.526,17.547h-1c-0.399,0-0.723,0.325-0.723,0.724v1.085h-0.342c-0.34,0-0.616,0.324-0.616,0.723V21.1
	H15.314V20.08c0-0.399-0.324-0.723-0.724-0.723h-2.552c-0.399,0-0.723,0.324-0.723,0.723V21.1h-0.987v-4.467
	c0-0.399-0.324-0.723-0.724-0.723H8.788V3.999h0.893c0.4,0,0.724-0.323,0.724-0.724V0.723C10.405,0.325,10.081,0,9.681,0H1.77
	c-0.4,0-0.724,0.325-0.724,0.723v2.552c0,0.4,0.324,0.724,0.724,0.724h1.148V15.91H1.77c-0.4,0-0.724,0.324-0.724,0.723v12.836
	H0.724c-0.4,0-0.724,0.323-0.724,0.723v3.997c0,0.399,0.324,0.724,0.724,0.724h0.323v1.202c0,1.198,0.972,2.171,2.17,2.171h4.941
	c1.199,0,2.171-0.973,2.171-2.171v-1.202h0.323c0.4,0,0.724-0.324,0.724-0.724v-3.997c0-0.399-0.324-0.723-0.724-0.723h-0.323
	v-2.497h0.987v1.021c0,0.398,0.324,0.722,0.723,0.722h2.552c0.399,0,0.724-0.323,0.724-0.722v-1.021h15.531v1.021
	c0,0.398,0.276,0.723,0.616,0.723h0.342v1.211c0,0.398,0.323,0.723,0.723,0.723h1c0.399,0,0.723-0.324,0.723-0.723v-1.934V20.08
	v-1.809C34.249,17.872,33.925,17.547,33.526,17.547z"/>
</svg>
