<?xml version="1.0" encoding="utf-8"?>
<!-- Generator: Adobe Illustrator 16.0.3, SVG Export Plug-In . SVG Version: 6.00 Build 0)  -->
<!DOCTYPE svg PUBLIC "-//W3C//DTD SVG 1.1//EN" "http://www.w3.org/Graphics/SVG/1.1/DTD/svg11.dtd">
<svg version="1.1" id="Шар_1" xmlns="http://www.w3.org/2000/svg" xmlns:xlink="http://www.w3.org/1999/xlink" x="0px" y="0px"
	 width="42.573px" height="29.131px" viewBox="0 0 42.573 29.131" enable-background="new 0 0 42.573 29.131" xml:space="preserve">
<path fill="#28B9BC" d="M26.162,21.37c0,0.578-0.533,1.045-1.19,1.045l0,0c-0.657,0-1.19-0.467-1.19-1.045v-3.662
	c0-0.578,0.533-1.043,1.19-1.043l0,0c0.657,0,1.19,0.465,1.19,1.043V21.37z"/>
<path fill="#28B9BC" d="M17.916,21.37c0,0.578-0.533,1.045-1.19,1.045l0,0c-0.657,0-1.19-0.467-1.19-1.045v-3.662
	c0-0.578,0.533-1.043,1.19-1.043l0,0c0.657,0,1.19,0.465,1.19,1.043V21.37z"/>
<path fill="#28B9BC" d="M0,26.485c0,1.463,1.46,2.646,3.262,2.646h36.05c1.802,0,3.262-1.184,3.262-2.646v-4.299
	c0-1.463-1.46-2.646-3.262-2.646H3.262C1.46,19.54,0,20.723,0,22.186V26.485z"/>
<path fill="#28B9BC" d="M22.035,19.563l0.002-12.071c0.178-2.599,2.372-5.068,5.302-5.068h0.15c2.929,0,5.177,2.456,5.304,5.194
	v2.306h2.25V7.522C35.043,3.368,31.676,0,27.521,0h-0.215c-4.155,0-7.522,3.368-7.522,7.522v12.041H22.035z"/>
</svg>
