<?xml version="1.0" encoding="utf-8"?>
<!-- Generator: Adobe Illustrator 16.0.3, SVG Export Plug-In . SVG Version: 6.00 Build 0)  -->
<!DOCTYPE svg PUBLIC "-//W3C//DTD SVG 1.1//EN" "http://www.w3.org/Graphics/SVG/1.1/DTD/svg11.dtd">
<svg version="1.1" id="Шар_1" xmlns="http://www.w3.org/2000/svg" xmlns:xlink="http://www.w3.org/1999/xlink" x="0px" y="0px"
	 width="38.68px" height="39.665px" viewBox="0 0 38.68 39.665" enable-background="new 0 0 38.68 39.665" xml:space="preserve">
<path fill="#28B9BC" d="M38.065,2.463H37.53V0.615C37.53,0.275,37.254,0,36.915,0h-4.764c-0.34,0-0.615,0.275-0.615,0.615v1.848
	h-0.699c-0.34,0-0.615,0.276-0.615,0.616v1.972c0,0.339,0.275,0.615,0.615,0.615h0.699v8.91c0,1.021-0.83,1.849-1.848,1.849h-4.805
	v-0.863c0-0.34-0.275-0.615-0.615-0.615h-1.973c-0.339,0-0.615,0.275-0.615,0.615v0.863h-1.396V12.62l3.126,0.012
	c0.854,0.021,1.965,0.069,1.965-1.177c0-1.244-1.041-1.415-1.908-1.385c-0.512,0.002-6.921,0.004-7.389,0.002
	c-0.643-0.008-2.117,0.139-2.117,1.383c0,1.246,1.157,1.184,2.262,1.197l2.829-0.01v3.782h-1.396v-0.863
	c0-0.34-0.275-0.615-0.615-0.615h-1.97c-0.342,0-0.617,0.275-0.617,0.615v0.863H9.32c-4.416,0-8.008,3.591-8.008,8.007v9.402H0.615
	C0.275,33.834,0,34.109,0,34.449v1.971c0,0.342,0.275,0.617,0.615,0.617h0.697v1.848c0,0.34,0.276,0.617,0.617,0.617h4.764
	c0.34,0,0.615-0.277,0.615-0.617v-1.848h0.534c0.339,0,0.616-0.275,0.616-0.617v-1.971c0-0.34-0.277-0.615-0.616-0.615H7.309v-9.402
	c0-1.019,0.828-1.848,1.848-1.848h5.297v0.861c0,0.341,0.275,0.616,0.617,0.616h1.97c0.34,0,0.616-0.275,0.616-0.616v-0.861h4.023
	v0.861c0,0.341,0.276,0.616,0.615,0.616h1.973c0.34,0,0.615-0.275,0.615-0.616v-0.861h4.639c4.416,0,8.008-3.593,8.008-8.008v-8.91
	h0.535c0.34,0,0.615-0.276,0.615-0.615V3.079C38.68,2.739,38.405,2.463,38.065,2.463z"/>
<rect x="2.545" y="37.037" fill="#28B9BC" width="3.531" height="1.232"/>
<g>
	<g>
		<path fill="#28B9BC" d="M20.166,24.727c-0.242-0.333-0.754-0.333-0.996,0c-0.5,0.688-4.882,6.809-4.882,9.559
			c0,2.967,2.413,5.379,5.38,5.379c2.965,0,5.379-2.412,5.379-5.379C25.047,31.607,20.475,25.171,20.166,24.727z"/>
	</g>
</g>
</svg>
