<?xml version="1.0" encoding="utf-8"?>
<!-- Generator: Adobe Illustrator 16.0.3, SVG Export Plug-In . SVG Version: 6.00 Build 0)  -->
<!DOCTYPE svg PUBLIC "-//W3C//DTD SVG 1.1//EN" "http://www.w3.org/Graphics/SVG/1.1/DTD/svg11.dtd">
<svg version="1.1" id="Шар_1" xmlns="http://www.w3.org/2000/svg" xmlns:xlink="http://www.w3.org/1999/xlink" x="0px" y="0px"
	 width="38.68px" height="39.665px" viewBox="0 0 38.68 39.665" enable-background="new 0 0 38.68 39.665" xml:space="preserve">
<path fill="#28B9BC" d="M36.143,4.422c-0.042-1.885-1.414-3.434-3.206-3.734C32.916,0.307,32.641,0,32.297,0
	c-0.345,0-0.621,0.307-0.64,0.691c-1.752,0.301-3.097,1.797-3.184,3.631h-0.01v4.041h-2.422h-0.501V4.422h-0.004
	c-0.042-1.904-1.442-3.465-3.262-3.742C22.252,0.301,21.98,0,21.638,0c-0.345,0-0.621,0.307-0.641,0.689
	c-1.753,0.301-3.1,1.797-3.188,3.633h-0.009v4.041h-2.344h-0.345V4.422h-0.004c-0.042-1.883-1.411-3.432-3.201-3.732
	c-0.026-0.377-0.298-0.676-0.638-0.676c-0.339,0-0.61,0.299-0.637,0.676C8.877,0.987,7.527,2.485,7.439,4.323H7.43v4.041H4.522H3.18
	H3.164v0.004c-0.309,0.008-0.558,0.227-0.558,0.5c0,0.271,0,3.207,0,3.48s0.249,0.492,0.558,0.5v0.004H3.18h1.342H7.43v14.314H4.448
	H3.108H3.091v0.002c-0.309,0.008-0.558,0.229-0.558,0.5s0,3.209,0,3.48c0,0.273,0.249,0.492,0.558,0.5v0.004h0.017h1.341H7.43v2.766
	c0,1.92,1.383,3.51,3.197,3.818c0.013,0.393,0.294,0.707,0.643,0.707c0.35,0,0.631-0.314,0.643-0.705
	c1.772-0.303,3.13-1.826,3.193-3.686h0.007v-2.9h0.345h2.344v2.766c0,1.92,1.383,3.51,3.196,3.818
	c0.02,0.385,0.295,0.691,0.641,0.691c0.342,0,0.613-0.301,0.638-0.68c1.804-0.275,3.195-1.813,3.259-3.695h0.007v-3.121h0.501h2.422
	v2.986c0,1.918,1.381,3.508,3.193,3.818c0.019,0.385,0.295,0.691,0.64,0.691c0.344,0,0.619-0.307,0.64-0.688
	c1.776-0.299,3.14-1.824,3.203-3.688h0.007V4.422H36.143z M25.541,12.852h0.501h2.422v14.094h-2.422h-0.501V12.852z M15.113,12.852
	h0.345h2.344v14.314h-2.344h-0.345V12.852z"/>
</svg>
