<?xml version="1.0" encoding="utf-8"?>
<!-- Generator: Adobe Illustrator 16.0.3, SVG Export Plug-In . SVG Version: 6.00 Build 0)  -->
<!DOCTYPE svg PUBLIC "-//W3C//DTD SVG 1.1//EN" "http://www.w3.org/Graphics/SVG/1.1/DTD/svg11.dtd">
<svg version="1.1" id="Шар_1" xmlns="http://www.w3.org/2000/svg" xmlns:xlink="http://www.w3.org/1999/xlink" x="0px" y="0px"
	 width="38.834px" height="36.784px" viewBox="-0.077 2.881 38.834 36.784" enable-background="new -0.077 2.881 38.834 36.784"
	 xml:space="preserve">
<path fill="#28B9BC" d="M6.292,24.303v-0.068h24.892c1.644,0,2.977-1.334,2.977-2.977c0-1.629-1.311-2.949-2.935-2.973H7.249v0.01
	c-0.069,0-0.136-0.008-0.203-0.01H6.292v-0.059c-3.593-0.471-6.369-3.535-6.369-7.256c0-4.029,3.253-7.297,7.275-7.324V3.645h27.945
	c0.055-0.43,0.419-0.764,0.863-0.764h1.876c0.482,0,0.874,0.391,0.874,0.873v4.189c0,0.482-0.392,0.875-0.874,0.875h-1.876
	c-0.464,0-0.84-0.363-0.869-0.82H7.201C5.58,8.026,4.273,9.344,4.273,10.971c0,1.592,1.255,2.881,2.827,2.961h24.614v0.027
	c3.798,0.271,6.796,3.432,6.796,7.299s-2.998,7.027-6.796,7.299v0.031H7.201c-1.621,0.025-2.929,1.344-2.929,2.971
	c0,1.629,1.308,2.945,2.929,2.973H35.14c0.035-0.449,0.408-0.805,0.867-0.805h1.876c0.482,0,0.874,0.391,0.874,0.873v4.189
	c0,0.482-0.392,0.875-0.874,0.875h-1.876c-0.45,0-0.816-0.342-0.864-0.779H6.786v-0.023c-3.829-0.238-6.863-3.412-6.863-7.303
	C-0.077,27.838,2.699,24.774,6.292,24.303z"/>
</svg>
